<mxfile host="50e96bf6-c821-4bea-9c1e-c52c209d43e1" modified="2020-08-16T13:17:34.145Z" agent="5.0 (Macintosh; Intel Mac OS X 10_15_6) AppleWebKit/537.36 (KHTML, like Gecko) Code/1.48.0 Chrome/78.0.3904.130 Electron/7.3.2 Safari/537.36" etag="39PTqsXia6pnOoLYZYOu" version="13.1.3">
    <diagram id="6hGFLwfOUW9BJ-s0fimq" name="Page-1">
        <mxGraphModel dx="1779" dy="685" grid="1" gridSize="10" guides="1" tooltips="1" connect="1" arrows="1" fold="1" page="1" pageScale="1" pageWidth="827" pageHeight="1169" math="0" shadow="0">
            <root>
                <mxCell id="0"/>
                <mxCell id="1" parent="0"/>
                <mxCell id="7" value="WebView" style="whiteSpace=wrap;html=1;fillColor=#60a917;strokeColor=#2D7600;fontColor=#ffffff;" parent="1" vertex="1">
                    <mxGeometry x="214" y="100" width="196" height="190" as="geometry"/>
                </mxCell>
                <mxCell id="8" value="WebChromeClient" style="whiteSpace=wrap;html=1;fillColor=#6a00ff;strokeColor=#3700CC;fontColor=#ffffff;" parent="1" vertex="1">
                    <mxGeometry x="70" y="130" width="160" height="50" as="geometry"/>
                </mxCell>
                <mxCell id="9" value="WebViewClient" style="whiteSpace=wrap;html=1;fillColor=#6a00ff;strokeColor=#3700CC;fontColor=#ffffff;" parent="1" vertex="1">
                    <mxGeometry x="70" y="200" width="160" height="50" as="geometry"/>
                </mxCell>
                <mxCell id="10" value="WebSettings" style="whiteSpace=wrap;html=1;fillColor=#6a00ff;strokeColor=#3700CC;fontColor=#ffffff;" parent="1" vertex="1">
                    <mxGeometry x="230" y="270" width="160" height="50" as="geometry"/>
                </mxCell>
                <mxCell id="11" value="JavaScriptInterface" style="whiteSpace=wrap;html=1;fillColor=#a20025;strokeColor=#6F0000;fontColor=#ffffff;" parent="1" vertex="1">
                    <mxGeometry x="350" y="160" width="160" height="50" as="geometry"/>
                </mxCell>
                <mxCell id="26" style="edgeStyle=orthogonalEdgeStyle;rounded=0;orthogonalLoop=1;jettySize=auto;html=1;" parent="1" source="12" target="13" edge="1">
                    <mxGeometry relative="1" as="geometry">
                        <Array as="points">
                            <mxPoint x="430" y="780"/>
                            <mxPoint x="430" y="780"/>
                        </Array>
                    </mxGeometry>
                </mxCell>
                <mxCell id="12" value="" style="whiteSpace=wrap;html=1;fillColor=#1ba1e2;strokeColor=#006EAF;fontColor=#ffffff;" parent="1" vertex="1">
                    <mxGeometry x="-10" y="390" width="268" height="500" as="geometry"/>
                </mxCell>
                <mxCell id="27" style="edgeStyle=orthogonalEdgeStyle;rounded=0;orthogonalLoop=1;jettySize=auto;html=1;exitX=-0.011;exitY=0.323;exitDx=0;exitDy=0;exitPerimeter=0;" parent="1" source="13" edge="1">
                    <mxGeometry relative="1" as="geometry">
                        <mxPoint x="270" y="570" as="targetPoint"/>
                    </mxGeometry>
                </mxCell>
                <mxCell id="35" value="AIDL&lt;br&gt;" style="edgeLabel;html=1;align=center;verticalAlign=middle;resizable=0;points=[];" vertex="1" connectable="0" parent="27">
                    <mxGeometry x="0.1241" y="-3" relative="1" as="geometry">
                        <mxPoint as="offset"/>
                    </mxGeometry>
                </mxCell>
                <mxCell id="13" value="" style="whiteSpace=wrap;html=1;fillColor=#1ba1e2;strokeColor=#006EAF;fontColor=#ffffff;" parent="1" vertex="1">
                    <mxGeometry x="470" y="390" width="268" height="500" as="geometry"/>
                </mxCell>
                <mxCell id="14" value="" style="whiteSpace=wrap;html=1;fillColor=#a20025;strokeColor=#6F0000;fontColor=#ffffff;" parent="1" vertex="1">
                    <mxGeometry x="490" y="420" width="228" height="380" as="geometry"/>
                </mxCell>
                <mxCell id="15" value="WebView 进程" style="text;html=1;align=center;verticalAlign=middle;resizable=0;points=[];autosize=1;" parent="1" vertex="1">
                    <mxGeometry x="515" y="390" width="90" height="20" as="geometry"/>
                </mxCell>
                <mxCell id="16" value="App 进程" style="text;html=1;align=center;verticalAlign=middle;resizable=0;points=[];autosize=1;" parent="1" vertex="1">
                    <mxGeometry x="75" y="410" width="60" height="20" as="geometry"/>
                </mxCell>
                <mxCell id="17" value="" style="whiteSpace=wrap;html=1;fillColor=#fa6800;strokeColor=#C73500;fontColor=#ffffff;" parent="1" vertex="1">
                    <mxGeometry x="499" y="460" width="210" height="300" as="geometry"/>
                </mxCell>
                <mxCell id="18" value="html" style="text;html=1;align=center;verticalAlign=middle;resizable=0;points=[];autosize=1;" parent="1" vertex="1">
                    <mxGeometry x="535" y="460" width="40" height="20" as="geometry"/>
                </mxCell>
                <mxCell id="19" value="&lt;font color=&quot;#000000&quot;&gt;html&lt;br&gt;显示静态布局&lt;/font&gt;" style="whiteSpace=wrap;html=1;fillColor=#e3c800;strokeColor=#B09500;fontColor=#ffffff;" parent="1" vertex="1">
                    <mxGeometry x="510" y="490" width="50" height="90" as="geometry"/>
                </mxCell>
                <mxCell id="20" value="&lt;font color=&quot;#000000&quot;&gt;JavaScript&lt;/font&gt;" style="whiteSpace=wrap;html=1;fillColor=#e3c800;strokeColor=#B09500;fontColor=#ffffff;" parent="1" vertex="1">
                    <mxGeometry x="579" y="490" width="50" height="90" as="geometry"/>
                </mxCell>
                <mxCell id="21" value="&lt;font color=&quot;#000000&quot;&gt;CSS&lt;br&gt;UI&lt;br&gt;设计样式&lt;/font&gt;" style="whiteSpace=wrap;html=1;fillColor=#e3c800;strokeColor=#B09500;fontColor=#ffffff;" parent="1" vertex="1">
                    <mxGeometry x="640" y="490" width="50" height="90" as="geometry"/>
                </mxCell>
                <mxCell id="22" value="WebActivity&lt;br&gt;" style="text;html=1;align=center;verticalAlign=middle;resizable=0;points=[];autosize=1;" parent="1" vertex="1">
                    <mxGeometry x="490" y="430" width="80" height="20" as="geometry"/>
                </mxCell>
                <mxCell id="23" value="showToast" style="whiteSpace=wrap;html=1;fillColor=#f0a30a;strokeColor=#BD7000;fontColor=#ffffff;" parent="1" vertex="1">
                    <mxGeometry y="554.5" width="130" height="30" as="geometry"/>
                </mxCell>
                <mxCell id="24" value="openPage" style="whiteSpace=wrap;html=1;fillColor=#f0a30a;strokeColor=#BD7000;fontColor=#ffffff;" parent="1" vertex="1">
                    <mxGeometry y="590" width="130" height="30" as="geometry"/>
                </mxCell>
                <mxCell id="25" value="命令n" style="whiteSpace=wrap;html=1;fillColor=#76608a;strokeColor=#432D57;fontColor=#ffffff;" parent="1" vertex="1">
                    <mxGeometry x="20" y="830" width="210" height="50" as="geometry"/>
                </mxCell>
                <mxCell id="28" value="showToast" style="text;html=1;align=center;verticalAlign=middle;resizable=0;points=[];autosize=1;" parent="1" vertex="1">
                    <mxGeometry x="500" y="640" width="70" height="20" as="geometry"/>
                </mxCell>
                <mxCell id="29" value="Login" style="text;html=1;align=center;verticalAlign=middle;resizable=0;points=[];autosize=1;" parent="1" vertex="1">
                    <mxGeometry x="540" y="670" width="40" height="20" as="geometry"/>
                </mxCell>
                <mxCell id="30" value="WebViewFragment&lt;br&gt;" style="text;html=1;align=center;verticalAlign=middle;resizable=0;points=[];autosize=1;" vertex="1" parent="1">
                    <mxGeometry x="500" y="730" width="120" height="20" as="geometry"/>
                </mxCell>
                <mxCell id="32" value="" style="endArrow=classic;html=1;" edge="1" parent="1" source="20" target="28">
                    <mxGeometry width="50" height="50" relative="1" as="geometry">
                        <mxPoint x="330" y="700" as="sourcePoint"/>
                        <mxPoint x="380" y="650" as="targetPoint"/>
                    </mxGeometry>
                </mxCell>
                <mxCell id="33" value="MainProcessTest" style="whiteSpace=wrap;html=1;fillColor=#76608a;strokeColor=#432D57;fontColor=#ffffff;" vertex="1" parent="1">
                    <mxGeometry x="10" y="470" width="210" height="50" as="geometry"/>
                </mxCell>
                <mxCell id="34" value="Service" style="whiteSpace=wrap;html=1;fillColor=#a20025;strokeColor=#6F0000;fontColor=#ffffff;" vertex="1" parent="1">
                    <mxGeometry x="140" y="550" width="89" height="80" as="geometry"/>
                </mxCell>
                <mxCell id="36" value="" style="endArrow=classic;html=1;exitX=0.5;exitY=1;exitDx=0;exitDy=0;entryX=0.745;entryY=-0.14;entryDx=0;entryDy=0;entryPerimeter=0;strokeColor=#FF0000;" edge="1" parent="1" source="20" target="29">
                    <mxGeometry width="50" height="50" relative="1" as="geometry">
                        <mxPoint x="330" y="700" as="sourcePoint"/>
                        <mxPoint x="380" y="650" as="targetPoint"/>
                    </mxGeometry>
                </mxCell>
                <mxCell id="37" value="" style="endArrow=classic;html=1;strokeColor=#FF0000;exitX=0;exitY=0.75;exitDx=0;exitDy=0;entryX=1.005;entryY=0.48;entryDx=0;entryDy=0;entryPerimeter=0;" edge="1" parent="1" source="17" target="12">
                    <mxGeometry width="50" height="50" relative="1" as="geometry">
                        <mxPoint x="330" y="700" as="sourcePoint"/>
                        <mxPoint x="380" y="650" as="targetPoint"/>
                    </mxGeometry>
                </mxCell>
                <mxCell id="42" value="2" style="edgeLabel;html=1;align=center;verticalAlign=middle;resizable=0;points=[];" vertex="1" connectable="0" parent="37">
                    <mxGeometry x="-0.2025" relative="1" as="geometry">
                        <mxPoint as="offset"/>
                    </mxGeometry>
                </mxCell>
                <mxCell id="38" value="" style="endArrow=classic;html=1;strokeColor=#FF0000;entryX=-0.005;entryY=1.06;entryDx=0;entryDy=0;entryPerimeter=0;" edge="1" parent="1" source="12" target="30">
                    <mxGeometry width="50" height="50" relative="1" as="geometry">
                        <mxPoint x="330" y="700" as="sourcePoint"/>
                        <mxPoint x="380" y="650" as="targetPoint"/>
                    </mxGeometry>
                </mxCell>
                <mxCell id="39" value="" style="endArrow=classic;html=1;strokeColor=#FF0000;entryX=0.5;entryY=1;entryDx=0;entryDy=0;" edge="1" parent="1" source="30" target="20">
                    <mxGeometry width="50" height="50" relative="1" as="geometry">
                        <mxPoint x="330" y="700" as="sourcePoint"/>
                        <mxPoint x="380" y="650" as="targetPoint"/>
                    </mxGeometry>
                </mxCell>
                <mxCell id="40" value="1" style="edgeLabel;html=1;align=center;verticalAlign=middle;resizable=0;points=[];" vertex="1" connectable="0" parent="39">
                    <mxGeometry x="0.2242" y="4" relative="1" as="geometry">
                        <mxPoint as="offset"/>
                    </mxGeometry>
                </mxCell>
                <mxCell id="41" value="4" style="edgeLabel;html=1;align=center;verticalAlign=middle;resizable=0;points=[];" vertex="1" connectable="0" parent="39">
                    <mxGeometry x="-0.3383" y="-3" relative="1" as="geometry">
                        <mxPoint as="offset"/>
                    </mxGeometry>
                </mxCell>
                <mxCell id="43" value="3&lt;br&gt;" style="text;html=1;align=center;verticalAlign=middle;resizable=0;points=[];autosize=1;" vertex="1" parent="1">
                    <mxGeometry x="399" y="712" width="20" height="20" as="geometry"/>
                </mxCell>
            </root>
        </mxGraphModel>
    </diagram>
</mxfile>